<svg width="64" height="64" viewBox="0 0 64 64" fill="none" xmlns="http://www.w3.org/2000/svg">
<path d="M61.613 39.273C61.822 38.054 61.894 36.599 61.697 34.9L61.115 29.849L60.738 30.261C60.6641 29.2609 60.492 28.2704 60.224 27.304C61.279 21.12 61.175 13.079 59.88 3.249L59.717 2L58.479 2.164C51.33 3.123 44.586 6.189 39.486 9.676C37.174 9.176 34.684 8.91 32 8.91C29.318 8.91 26.826 9.176 24.514 9.676C19.414 6.19 12.672 3.123 5.523 2.164L4.284 2L4.119 3.25C2.824 13.08 2.721 21.121 3.775 27.305C3.50798 28.2716 3.33584 29.262 3.261 30.262L2.885 29.85L2.303 34.9C2.107 36.599 2.179 38.054 2.388 39.273L2 39.189V42.08C2 47.529 5.878 52.721 12.92 56.695C18.716 59.967 26.027 62 32 62C35.141 62 38.647 61.426 42.112 60.418C43.4176 61.4428 45.0293 61.9998 46.689 62C50.728 62 54.017 58.766 54.171 54.719C59.242 51.069 62 46.668 62 42.08V39.189L61.613 39.273ZM57.564 4.857C58.373 11.433 58.607 17.218 58.296 22.082C58.267 21.393 58.148 20.705 57.884 20.062L58.307 20L56.625 17.094C56.963 15.123 57.217 11.696 56.092 7.621C52.199 9.24 49.192 12.06 48.067 13.213C46.452 12.123 44.665 11.242 42.719 10.565C46.936 7.984 52.094 5.791 57.564 4.857ZM6.436 4.857C11.907 5.791 17.066 7.984 21.283 10.564C19.336 11.242 17.55 12.123 15.935 13.212C14.809 12.06 11.802 9.239 7.909 7.62C6.785 11.694 7.039 15.12 7.377 17.093L5.694 20L6.116 20.063C5.852 20.706 5.732 21.393 5.704 22.083C5.393 17.219 5.628 11.434 6.436 4.857ZM53.963 51.953C53.342 48.24 51.406 44.019 48.479 39.582C49.0287 39.5053 49.5696 39.375 50.094 39.193C50.504 39.046 50.908 38.859 51.299 38.619C51.496 38.495 51.684 38.357 51.875 38.178C51.926 38.13 51.967 38.087 52.027 38.019L52.123 37.895L52.187 37.793L52.341 37.494C52.722 36.714 53.003 35.92 53.222 35.095C53.636 33.449 53.749 31.672 53.312 29.945C52.82 28.205 51.82 26.738 50.519 25.563C49.216 24.413 47.4 23.639 45.599 23.853C45.1553 23.8976 44.7173 23.9877 44.292 24.122C43.8792 24.2473 43.4802 24.4142 43.101 24.62C42.3387 25.029 41.6645 25.5842 41.117 26.254C40.0873 27.5703 39.4884 29.172 39.402 30.841C39.806 29.282 40.535 27.803 41.658 26.747C42.1946 26.215 42.8293 25.7921 43.527 25.502C43.8748 25.357 44.2341 25.2409 44.601 25.155C44.9536 25.0736 45.3133 25.0271 45.675 25.016C47.126 24.975 48.507 25.594 49.571 26.616C50.632 27.624 51.509 28.945 51.862 30.329C52.245 31.736 52.175 33.28 51.841 34.764C51.681 35.507 51.448 36.251 51.152 36.937L51.039 37.179L51.023 37.207C51.021 37.206 51.023 37.201 51.025 37.2L50.97 37.263C50.8551 37.3769 50.731 37.4813 50.599 37.575C50.3055 37.7847 49.9907 37.963 49.66 38.107C49.088 38.356 48.472 38.521 47.844 38.642C47.4804 38.1115 47.1094 37.5861 46.731 37.066C47.7794 36.6028 48.6367 35.7932 49.1589 34.7729C49.6812 33.7525 49.8366 32.5837 49.5992 31.4623C49.3618 30.341 48.7459 29.3354 47.855 28.6143C46.964 27.8932 45.8522 27.5005 44.706 27.502C43.6946 27.5035 42.7076 27.812 41.8754 28.3868C41.0433 28.9617 40.4053 29.7756 40.046 30.721C40.28 30.428 40.612 30.242 40.984 30.242C41.691 30.242 42.263 30.904 42.263 31.721C42.263 32.538 41.691 33.2 40.984 33.2C40.384 33.2 39.888 32.722 39.748 32.08C39.736 32.222 39.707 32.357 39.707 32.502C39.7068 33.4834 39.9954 34.4432 40.5369 35.2617C41.0784 36.0802 41.8487 36.7213 42.752 37.105C42.5952 36.7485 42.5135 36.3635 42.512 35.974C42.512 34.578 43.489 33.447 44.698 33.447C45.905 33.447 46.884 34.579 46.884 35.974C46.884 36.356 46.798 36.71 46.665 37.035C46.2278 37.6347 45.8007 38.2418 45.384 38.856C45.304 38.855 45.224 38.861 45.144 38.859C43.56 38.853 41.976 38.549 40.394 38.204C41.8346 38.8483 43.3526 39.3034 44.91 39.558C42.65 42.971 41.004 46.212 40.074 49.2C34.717 46.762 28.432 46.788 23.093 49.282C21.755 49.927 23.423 53.432 24.755 52.782C28.327 51.118 33.65 50.477 38.63 52.792C38.845 52.892 39.071 52.878 39.292 52.795C39.229 53.351 39.192 53.898 39.192 54.429C39.192 55.923 39.626 57.312 40.364 58.485C37.454 59.244 34.571 59.66 32.002 59.66C21.037 59.66 4.31 52.162 4.31 42.084L6.158 42.482C6.158 42.482 4.02 40.173 4.596 35.177L6.392 37.146C6.392 37.146 4.596 32.076 6.158 27.398L8.147 28.886C8.147 28.886 7.543 26.982 8.098 25.679L8.957 26.363C8.957 26.363 6.921 21.873 8.814 20.152C9.581 22.724 10.487 22.763 10.539 22.763H10.542C10.542 22.763 9.396 20.779 10.288 19.947C10.653 20.545 10.993 20.748 11.267 20.748C11.678 20.748 11.942 20.291 11.92 20.021C11.871 19.425 12.1 18.583 9.424 18.187C9.793 17.55 10.617 17.361 11.473 17.361C12.748 17.361 14.092 17.785 14.092 17.785C14.092 17.785 14.006 16.443 12.238 16.443L12.131 16.445C12.687 15.611 13.501 15.367 14.261 15.367C15.317 15.367 16.267 15.836 16.267 15.836L16.261 15.854C16.9776 15.3123 17.7307 14.8208 18.515 14.383C19.135 15.801 19.973 16.447 20.998 18.342C22.463 15.637 23.535 14.065 24.137 12.168C25.0502 11.9363 25.9748 11.7517 26.907 11.615C27.682 15.105 29.462 17.806 32.001 22.492C34.578 17.736 36.334 15.076 37.097 11.613C38.066 11.754 38.984 11.945 39.868 12.168C40.475 14.086 41.556 15.672 43.003 18.342C44.038 16.428 44.876 15.787 45.491 14.383C46.282 14.834 47.044 15.315 47.745 15.854L47.739 15.836C47.739 15.836 48.688 15.367 49.745 15.367C50.505 15.367 51.319 15.611 51.874 16.445L51.767 16.443C49.999 16.443 49.913 17.785 49.913 17.785C49.913 17.785 51.257 17.359 52.532 17.361C53.387 17.361 54.212 17.55 54.581 18.187C51.905 18.583 52.134 19.425 52.085 20.021C52.064 20.291 52.327 20.748 52.737 20.748C53.012 20.748 53.352 20.545 53.717 19.947C54.61 20.779 53.463 22.763 53.463 22.763H53.465C53.518 22.763 54.424 22.724 55.19 20.152C57.085 21.873 55.047 26.363 55.047 26.363L55.906 25.679C56.463 26.982 55.857 28.886 55.857 28.886L57.845 27.398C59.408 32.076 57.611 37.146 57.611 37.146L59.408 35.177C59.984 40.173 57.845 42.482 57.845 42.482L59.695 42.084C59.693 45.808 57.4 49.181 53.963 51.953Z" fill="white"/>
<path d="M31.703 37.749C30.961 37.749 28.471 37.821 27.66 38.767C27.084 39.441 27.529 41.111 29.066 42.552C30.035 43.462 30.961 43.749 31.703 43.749C32.447 43.749 33.373 43.462 34.342 42.552C35.877 41.111 36.324 39.441 35.746 38.767C34.936 37.821 32.447 37.749 31.703 37.749Z" fill="white"/>
<path d="M20.304 24.619C19.9247 24.4134 19.5257 24.2465 19.113 24.121C18.688 23.9868 18.2504 23.8966 17.807 23.852C16.007 23.638 14.19 24.412 12.886 25.562C11.585 26.737 10.585 28.204 10.094 29.943C9.65498 31.671 9.76898 33.449 10.184 35.093C10.402 35.919 10.684 36.713 11.063 37.493L11.219 37.792L11.282 37.894L11.379 38.018C11.439 38.086 11.481 38.129 11.53 38.177C11.721 38.357 11.91 38.494 12.105 38.618C12.498 38.858 12.901 39.045 13.312 39.192C14.962 39.785 16.69 39.806 18.324 39.588C19.96 39.328 21.536 38.868 23.015 38.2C21.433 38.546 19.849 38.849 18.265 38.855C16.696 38.896 15.112 38.699 13.746 38.104C13.4148 37.9602 13.0997 37.7819 12.806 37.572C12.6743 37.4783 12.5506 37.374 12.436 37.26L12.381 37.197C12.383 37.198 12.385 37.203 12.383 37.203C12.3774 37.1934 12.3714 37.184 12.365 37.175L12.253 36.934C11.9537 36.2337 11.7233 35.5059 11.565 34.761C11.231 33.278 11.161 31.733 11.544 30.326C11.897 28.942 12.773 27.621 13.834 26.613C14.898 25.592 16.279 24.972 17.73 25.013C18.092 25.0241 18.452 25.0706 18.805 25.152C19.184 25.244 19.535 25.352 19.879 25.499C20.57 25.782 21.203 26.209 21.748 26.744C22.871 27.799 23.6 29.279 24.004 30.838C23.9175 29.169 23.3187 27.5673 22.289 26.251C21.7402 25.5826 21.0659 25.0282 20.304 24.619Z" fill="white"/>
<path d="M18.705 27.5C17.6937 27.5014 16.7067 27.8099 15.8747 28.3848C15.0427 28.9596 14.405 29.7736 14.046 30.719C14.279 30.426 14.61 30.24 14.982 30.24C15.689 30.24 16.261 30.902 16.261 31.719C16.261 32.536 15.689 33.198 14.982 33.198C14.384 33.198 13.886 32.72 13.747 32.078C13.735 32.22 13.705 32.355 13.705 32.5C13.705 33.4813 13.9937 34.441 14.5352 35.2595C15.0766 36.0779 15.8468 36.7191 16.75 37.103C16.5931 36.7465 16.5114 36.3615 16.51 35.972C16.51 34.576 17.488 33.445 18.696 33.445C19.903 33.445 20.882 34.577 20.882 35.972C20.882 36.384 20.789 36.768 20.638 37.112C21.7036 36.6658 22.5818 35.8643 23.1234 34.8438C23.6649 33.8234 23.8364 32.6468 23.6086 31.5142C23.3809 30.3816 22.7679 29.3628 21.874 28.631C20.98 27.8992 19.8602 27.4996 18.705 27.5Z" fill="white"/>
</svg>
